<svg xmlns="http://www.w3.org/2000/svg" viewBox="0 0 19.012 19.014">
  <defs>
    <style>
      .cls-1 {
        fill: #7d87a3;
      }
    </style>
  </defs>
  <path id="icons8-settings_filled" class="cls-1" d="M20.668,9.945l-2.443-.4a7,7,0,0,0-.583-1.407l1.426-2.032a.414.414,0,0,0-.046-.53L17.414,3.969a.413.413,0,0,0-.534-.043l-2,1.439a6.933,6.933,0,0,0-1.419-.59l-.426-2.433A.414.414,0,0,0,12.627,2H10.353a.413.413,0,0,0-.408.347l-.4,2.42a6.963,6.963,0,0,0-1.421.584l-2-1.426a.414.414,0,0,0-.533.044L3.993,5.575a.413.413,0,0,0-.046.529l1.4,2.01a7,7,0,0,0-.594,1.43l-2.41.4A.414.414,0,0,0,2,10.353v2.273a.414.414,0,0,0,.341.407l2.41.427a6.966,6.966,0,0,0,.594,1.43L3.925,16.88a.414.414,0,0,0,.044.533l1.607,1.608a.413.413,0,0,0,.529.046l2.013-1.41a6.973,6.973,0,0,0,1.424.589l.4,2.423a.412.412,0,0,0,.407.345h2.273a.413.413,0,0,0,.407-.341l.432-2.435a6.951,6.951,0,0,0,1.418-.593l2.027,1.422a.413.413,0,0,0,.53-.046l1.607-1.608a.414.414,0,0,0,.043-.534l-1.446-2.008a6.919,6.919,0,0,0,.582-1.409l2.446-.429a.413.413,0,0,0,.342-.407V10.353A.413.413,0,0,0,20.668,9.945ZM11.508,14.4A2.893,2.893,0,1,1,14.4,11.507,2.893,2.893,0,0,1,11.508,14.4Z" transform="translate(-2.002 -2)"/>
</svg>
