<svg xmlns="http://www.w3.org/2000/svg" viewBox="0 0 22.006 18.519">
  <defs>
    <style>
      .cls-1 {
        fill: #7d87a3;
      }
    </style>
  </defs>
  <g id="main_nav" data-name="main nav" transform="translate(-58.966 -163)">
    <g id="flaticon1544086752-svg" transform="translate(58.966 156.652)">
      <path id="Path_33" data-name="Path 33" class="cls-1" d="M13.28,9.527A4,4,0,0,1,15.141,12.5,3.226,3.226,0,1,0,13.28,9.527Zm-2.114,6.608a3.227,3.227,0,1,0-3.228-3.227A3.227,3.227,0,0,0,11.165,16.135Zm1.369.22H9.8a4.137,4.137,0,0,0-4.132,4.133v3.349l.009.052.231.072a18.81,18.81,0,0,0,5.619.906,11.535,11.535,0,0,0,4.906-.921l.216-.109h.023v-3.35A4.136,4.136,0,0,0,12.535,16.355Zm5.34-3.332H15.157a3.977,3.977,0,0,1-1.228,2.77,4.91,4.91,0,0,1,3.507,4.7v1.032a11.121,11.121,0,0,0,4.331-.91l.216-.109h.023v-3.35A4.137,4.137,0,0,0,17.874,13.023ZM5.5,12.8a3.206,3.206,0,0,0,1.716-.5,3.994,3.994,0,0,1,1.5-2.547c0-.06.009-.12.009-.181A3.227,3.227,0,1,0,5.5,12.8Zm2.9,2.99a3.98,3.98,0,0,1-1.227-2.755c-.1-.007-.2-.015-.3-.015H4.132A4.137,4.137,0,0,0,0,17.155V20.5l.009.052.231.073a19.375,19.375,0,0,0,4.654.875V20.492A4.911,4.911,0,0,1,8.4,15.793Z"/>
    </g>
  </g>
</svg>
