<svg xmlns="http://www.w3.org/2000/svg" viewBox="0 0 56.223 56.227">
  <defs>
    <style>
      .cls-1 {
        fill: #863796;
        fill-rule: evenodd;
      }
    </style>
  </defs>
  <path id="Fill" class="cls-1" d="M28.111,0A28.114,28.114,0,1,0,56.223,28.113,28.123,28.123,0,0,0,28.111,0Zm0,8.433a8.434,8.434,0,1,1-8.433,8.435,8.423,8.423,0,0,1,8.433-8.435Zm0,39.922A20.245,20.245,0,0,1,11.244,39.3c.084-5.6,11.245-8.659,16.867-8.659,5.6,0,16.782,3.063,16.867,8.659a20.243,20.243,0,0,1-16.867,9.053Z" transform="translate(0)"/>
</svg>
