<svg xmlns="http://www.w3.org/2000/svg" viewBox="0 0 13.137 17.258">
  <defs>
    <style>
      .cls-1 {
        fill: #4a90e2;
      }
    </style>
  </defs>
  <g id="flaticon1544072051-svg" transform="translate(-61.127)">
    <g id="Group_4" data-name="Group 4" transform="translate(61.127)">
      <path id="Path_23" data-name="Path 23" class="cls-1" d="M71.688,11.207a2.277,2.277,0,0,1-2.3-2.072,3.893,3.893,0,0,0,.9-.887,5.392,5.392,0,0,0,.971-2.534.386.386,0,0,0,.1-.137,4.182,4.182,0,0,0,.324-1.628A3.817,3.817,0,0,0,68.022,0,3.4,3.4,0,0,0,66.5.362a2.678,2.678,0,0,0-.539.1,3.027,3.027,0,0,0-1.9,1.731,4.3,4.3,0,0,0-.213,2.822,4.545,4.545,0,0,0,.2.6.386.386,0,0,0,.091.133A4.852,4.852,0,0,0,66,9.132a2.277,2.277,0,0,1-2.3,2.075,2.67,2.67,0,0,0-2.576,2.665v3a.389.389,0,0,0,.389.389h12.36a.389.389,0,0,0,.389-.389v-3A2.67,2.67,0,0,0,71.688,11.207Zm-5.513-10a1.915,1.915,0,0,1,.445-.072.388.388,0,0,0,.163-.044A2.641,2.641,0,0,1,68.022.777a3.041,3.041,0,0,1,2.884,3.171c0,.052,0,.1,0,.157a1.694,1.694,0,0,0-1.21-.508H67.044a.723.723,0,0,1-.672-.454.476.476,0,0,0-.9.059,3.6,3.6,0,0,1-.879,1.574A2.881,2.881,0,0,1,66.175,1.205Zm-.338,6.721A4.57,4.57,0,0,1,64.9,5.561a4.4,4.4,0,0,0,1.13-1.584,1.515,1.515,0,0,0,.121.1,1.49,1.49,0,0,0,.9.3h2.648a.923.923,0,0,1,.842.546s0,.005,0,.008c0,2.194-1.273,3.978-2.837,3.978A2.43,2.43,0,0,1,65.837,7.926Zm.893,1.587a2.828,2.828,0,0,0,1.932,0,3.043,3.043,0,0,0,1.13,1.832l-2.04,2.906a.067.067,0,0,1-.11,0L65.6,11.347A3.043,3.043,0,0,0,66.73,9.513Zm6.757,6.968H61.9V13.872a1.892,1.892,0,0,1,1.89-1.89,3.331,3.331,0,0,0,1.134-.24L67.005,14.7a.845.845,0,0,0,.691.359h0a.845.845,0,0,0,.691-.359l2.077-2.958a3.2,3.2,0,0,0,1.133.239,1.892,1.892,0,0,1,1.89,1.89Z" transform="translate(-61.127)"/>
    </g>
  </g>
</svg>
