<svg xmlns="http://www.w3.org/2000/svg" viewBox="0 0 21.677 15.64">
  <defs>
    <style>
      .cls-1 {
        fill: #8d91a2;
      }
    </style>
  </defs>
  <path id="flaticon1544072348-svg" class="cls-1" d="M21.318.453H16.785a.359.359,0,0,0-.359.359v1.3a.359.359,0,0,0,.359.359h1.521L16.243,4.518A5.448,5.448,0,0,0,13.1,3.524c-.171,0-.331.006-.483.019L12.6,3.518a5.521,5.521,0,0,0-9.428,3.9,5.556,5.556,0,0,0,.976,3.131l-1.6,1.6-.921-.921a.359.359,0,0,0-.508,0l-.9.9a.359.359,0,0,0,0,.508l.921.921L.105,14.585a.359.359,0,0,0,0,.508L1,15.988a.359.359,0,0,0,.508,0l1.033-1.033.921.921a.36.36,0,0,0,.508,0l.9-.9a.359.359,0,0,0,0-.508l-.921-.921,1.6-1.6a5.459,5.459,0,0,0,3.144.986c.166,0,.329-.008.491-.022l.021.021a5.52,5.52,0,0,0,9.424-3.9,5.441,5.441,0,0,0-1.009-3.14L19.657,3.83V5.3a.359.359,0,0,0,.359.359h1.3a.359.359,0,0,0,.359-.359V.812A.359.359,0,0,0,21.318.453ZM5.731,11.2a.359.359,0,0,0-.475.029L3.182,13.3a.359.359,0,0,0,0,.508l.921.921-.387.387-.921-.921a.359.359,0,0,0-.508,0L1.254,15.226l-.387-.387L1.9,13.806a.359.359,0,0,0,0-.508l-.921-.921.387-.387.921.921a.359.359,0,0,0,.508,0l2.073-2.073a.359.359,0,0,0,.03-.474A4.8,4.8,0,0,1,11.723,3.7a5.522,5.522,0,0,0-.64.206A4.211,4.211,0,0,0,8.7,3.167a4.258,4.258,0,1,0,3.818,2.378,3.548,3.548,0,0,1,.58-.05,4.741,4.741,0,0,1,.4,1.924,4.808,4.808,0,0,1-4.806,4.8A4.759,4.759,0,0,1,5.731,11.2Zm4.582-6.919a5.52,5.52,0,0,0-2.73,4.76,5.46,5.46,0,0,0,.312,1.83,3.537,3.537,0,1,1,2.418-6.59ZM9.566,9.032a3.543,3.543,0,0,1,2.241-3.29,3.534,3.534,0,0,1-1.815,4.97A3.52,3.52,0,0,1,9.566,9.032ZM13.9,5.587a3.537,3.537,0,1,1-2.417,6.59A5.518,5.518,0,0,0,13.9,5.587Zm7.057-.645h-.584V2.957a.359.359,0,0,0-.614-.253l-2.873,2.9a.359.359,0,0,0-.028.474,4.789,4.789,0,0,1-6.784,6.681,5.48,5.48,0,0,0,.639-.208,4.213,4.213,0,0,0,2.388.735,4.256,4.256,0,0,0,.241-8.5h-.008q-.116-.006-.233-.006a4.243,4.243,0,0,0-1.234.183h0a4.253,4.253,0,0,0-2.58,5.949,3.545,3.545,0,0,1-.583.05,4.735,4.735,0,0,1-.4-1.922,4.788,4.788,0,0,1,7.756-3.765.359.359,0,0,0,.474-.028l2.9-2.875a.359.359,0,0,0-.253-.614H17.144V1.171h3.816Zm0,0" transform="translate(0 -0.453)"/>
</svg>
