<svg xmlns="http://www.w3.org/2000/svg" viewBox="0 0 16.933 18.142">
  <defs>
    <style>
      .cls-1 {
        fill: #8d91a2;
      }
    </style>
  </defs>
  <g id="flaticon1544072582-svg" transform="translate(-2)">
    <path id="Path_24" data-name="Path 24" class="cls-1" d="M18.63,1.209H16.514V.3a.3.3,0,0,0-.3-.3H14.095a.3.3,0,0,0-.3.3v.907H7.14V.3a.3.3,0,0,0-.3-.3H4.721a.3.3,0,0,0-.3.3v.907H2.3a.3.3,0,0,0-.3.3V17.84a.3.3,0,0,0,.3.3H18.63a.3.3,0,0,0,.3-.3V1.512A.3.3,0,0,0,18.63,1.209ZM14.4.6h1.512V2.419H14.4V.6ZM5.024.6H6.536V2.419H5.024V.6ZM2.6,1.814H4.419v.907a.3.3,0,0,0,.3.3H6.838a.3.3,0,0,0,.3-.3V1.814h6.652v.907a.3.3,0,0,0,.3.3h2.117a.3.3,0,0,0,.3-.3V1.814h1.814V4.536H2.6Zm0,15.723V5.14H18.328v12.4Z"/>
    <path id="Path_25" data-name="Path 25" class="cls-1" d="M19.164,23H11v8.769H22.49V23H19.164Zm-2.117.6h2.117v2.117H17.047Zm2.117,4.838H17.047V26.326h2.117Zm-4.838-2.117h2.117v2.117H14.326Zm0-2.721h2.117v2.117H14.326Zm-2.721,0h2.117v2.117H11.6Zm0,2.721h2.117v2.117H11.6Zm2.117,4.838H11.6V29.047h2.117Zm2.721,0H14.326V29.047h2.117Zm2.721,0H17.047V29.047h2.117Zm2.721,0H19.769V29.047h2.117Zm0-2.721H19.769V26.326h2.117Zm0-4.838v2.117H19.769V23.6Z" transform="translate(-6.279 -16.045)"/>
  </g>
</svg>
