<svg xmlns="http://www.w3.org/2000/svg" viewBox="0 0 14.988 15.603">
  <defs>
    <style>
      .cls-1 {
        fill: #8d91a2;
      }
    </style>
  </defs>
  <g id="flaticon1544072680-svg" transform="translate(-1.015 0)">
    <g id="Group_8" data-name="Group 8" transform="translate(1.016 0)">
      <path id="Path_26" data-name="Path 26" class="cls-1" d="M15.611,1.691c-.038-.035-.116-.095-.17-.134A6.638,6.638,0,0,0,11.509,0C9.079.116,5.849,3.4,4.917,4.4S.951,8.861,1.017,11.29a4.1,4.1,0,0,0,.253,1.275,8.337,8.337,0,0,0,1.57,2.521s.107.126.158.174a1.446,1.446,0,0,0,.588.3,1.385,1.385,0,0,0,.372.048,1.5,1.5,0,0,0,.5-.08,1.45,1.45,0,0,0,.562-.336c.09-.1,1.806-2.287,1.816-2.3l.011-.017a1.517,1.517,0,0,0,.212-.369,1.468,1.468,0,0,0,.015-1.03,1.4,1.4,0,0,0-.361-.551L5.9,10.167a.73.73,0,0,1-.165-.248.667.667,0,0,1-.012-.1l4.695-5.052a.09.09,0,0,1,.031-.022l.018.007a1.745,1.745,0,0,1,.275.215l.806.745a1.457,1.457,0,0,0,1.6.241,1.731,1.731,0,0,0,.385-.268l.036-.029c.017-.015,2.04-1.859,2.116-1.941A1.521,1.521,0,0,0,16,2.723a1.478,1.478,0,0,0-.178-.761A1.348,1.348,0,0,0,15.611,1.691Zm-.582,1.391c-.1.1-1.943,1.782-2.039,1.87l-.075.062a.8.8,0,0,1-.165.119.531.531,0,0,1-.581-.091L11.362,4.3a2.237,2.237,0,0,0-.536-.383.962.962,0,0,0-.386-.082.977.977,0,0,0-.682.312l-4.742,5.1a.93.93,0,0,0-.171.839,1.544,1.544,0,0,0,.439.748l.807.754a.49.49,0,0,1,.124.192.566.566,0,0,1-.006.392.626.626,0,0,1-.091.152.568.568,0,0,0-.034.048c-.163.21-1.643,2.093-1.729,2.2a.78.78,0,0,1-.218.108.622.622,0,0,1-.18.023.472.472,0,0,1-.118-.012A.917.917,0,0,1,3.62,14.6c-.029-.029-.08-.091-.089-.1a7.456,7.456,0,0,1-1.405-2.237,3.188,3.188,0,0,1-.2-.992c-.045-1.66,1.943-4.4,3.658-6.25S9.891.988,11.55.912a5.72,5.72,0,0,1,3.334,1.363l.033.025c.019.014.056.04.071.053a.57.57,0,0,1,.059.084.658.658,0,0,1,.046.244A1.364,1.364,0,0,1,15.029,3.082Z" transform="translate(-1.015 0)"/>
    </g>
  </g>
</svg>
