<svg xmlns="http://www.w3.org/2000/svg" viewBox="0 0 37.003 23.277">
  <defs>
    <style>
      .cls-1 {
        fill: #7d87a3;
      }
    </style>
  </defs>
  <g id="icons8-cloud_sync" transform="translate(0 -8.547)">
    <path id="Path_36" data-name="Path 36" class="cls-1" d="M21.456,8.547a9.647,9.647,0,0,0-8.681,5.568,5.069,5.069,0,0,0-2.891-1A5.166,5.166,0,0,0,4.758,18a7.111,7.111,0,0,0,2.4,13.821H30.415A6.6,6.6,0,0,0,37,25.236,6.53,6.53,0,0,0,31.152,18.8c.012-.173.035-.341.035-.52A9.742,9.742,0,0,0,21.456,8.547Zm0,1.48A8.208,8.208,0,0,1,29.637,19.3l-.1.83h.882a5.107,5.107,0,1,1,0,10.213H7.158A5.673,5.673,0,0,1,5.643,19.2l.564-.156-.02-.581c0-.1-.009-.156-.009-.162a3.706,3.706,0,0,1,6.328-2.619l.815.818.4-1.084A8.238,8.238,0,0,1,21.456,10.027Zm-2.214,6.256a5.95,5.95,0,0,0-5.863,5.076c0,.035,0,.069-.006.1h1.5a4.425,4.425,0,0,1,7.5-2.394l-1.654,1.654h4.44v-4.44l-1.74,1.74A5.894,5.894,0,0,0,19.241,16.283Zm4.374,6.661a4.443,4.443,0,0,1-4.374,3.7,4.789,4.789,0,0,1-3.226-1.214l1.746-1.746h-4.44v4.44l1.648-1.648a6.281,6.281,0,0,0,4.273,1.648,5.929,5.929,0,0,0,5.871-5.18Z"/>
  </g>
</svg>
