<svg xmlns="http://www.w3.org/2000/svg" viewBox="0 0 11.242 12.225">
  <defs>
    <style>
      .cls-1 {
        fill: #218dcf;
      }
    </style>
  </defs>
  <g id="icons8-view_file" transform="translate(-4)">
    <path id="Path_32" data-name="Path 32" class="cls-1" d="M4,0V11.8H9.9a.246.246,0,1,0,0-.492H4.492V.492H8.918V3.934H12.36V5.655a.246.246,0,1,0,.492,0V3.588l-.069-.077L9.34.069,9.264,0ZM9.41.845l2.6,2.6H9.41Zm2.459,5.548a2.459,2.459,0,1,0,1.552,4.365l1.468,1.468.353-.353L13.774,10.4a2.458,2.458,0,0,0-1.906-4.011Zm0,.492A1.967,1.967,0,1,1,9.9,8.852,1.964,1.964,0,0,1,11.869,6.885Z"/>
  </g>
</svg>
