<svg xmlns="http://www.w3.org/2000/svg" viewBox="0 0 8.838 10.445">
  <defs>
    <style>
      .cls-1 {
        fill: #218dcf;
      }
    </style>
  </defs>
  <g id="icons8-prescription_pill_bottle" transform="translate(-5 -3)">
    <path id="Path_30" data-name="Path 30" class="cls-1" d="M6.645,3a.8.8,0,0,0-.653.4H5.8a.809.809,0,0,0-.8.8V5.41h.4V6.49a.412.412,0,0,0,0,.239v4.582a.412.412,0,0,0,0,.239v1.092a.809.809,0,0,0,.8.8h6.428a.809.809,0,0,0,.8-.8v-1.13a.408.408,0,0,0,0-.163V6.691a.408.408,0,0,0,0-.163V5.41h.4V4.205a.809.809,0,0,0-.8-.8h-.188a.8.8,0,0,0-.653-.4Zm-.025.8c.006,0,.014,0,.025,0h5.549c.02,0,.022.006.025.025l.013.038.013.025.013.038.088.276h.691v.4H5.8v-.4h.69l.088-.276.013-.038.013-.025V3.829A.038.038,0,0,1,6.62,3.8ZM6.205,5.41h6.428v.8H6.205Zm0,1.607h6.428v4.017H6.205Zm2.009.4V9.428h.4v-.8h.063l.9,1.218-.565.791h.465l.339-.465.339.465h.465l-.578-.791.578-.816H10.16l-.352.49-.665-.891h.075a.6.6,0,0,0,0-1.205Zm.4.4h.6a.2.2,0,0,1,0,.4h-.6Zm-2.41,4.017h6.428v.8H6.205Z"/>
  </g>
</svg>
