<svg xmlns="http://www.w3.org/2000/svg" viewBox="0 0 29.434 41.046">
  <defs>
    <style>
      .cls-1 {
        fill: rgba(77,161,255,0.3);
      }

      .cls-2 {
        fill: #4da1ff;
      }
    </style>
  </defs>
  <g id="logo" transform="translate(29.434) rotate(90)">
    <path id="_Path_" class="cls-1" d="M9.069,4.785,4.29,0a14.674,14.674,0,0,0,0,20.735l4.78-4.785a7.9,7.9,0,0,1,0-11.165Z" transform="translate(11.644 4.295)"/>
    <path id="_Path_3" class="cls-1" d="M15.935,4.294l1.928,1.958,2.85,2.827a7.893,7.893,0,1,1,0,11.165L9.56,9.079a6.755,6.755,0,0,0-9.56,0L15.933,25.03A14.655,14.655,0,1,0,36.646,4.294,14.633,14.633,0,0,0,15.935,4.294Z" transform="translate(0 0)"/>
    <path id="_Path_5" class="cls-2" d="M24.732.666a7.894,7.894,0,1,1-4.018,13.322L9.56,2.822a6.755,6.755,0,0,0-9.56,0H0l15.933,15.95a14.636,14.636,0,0,0,20.713,0q.134-.134.264-.271C44.33,10.687,37-2.042,26.484.278Z" transform="translate(0 6.258)"/>
  </g>
</svg>
