<svg xmlns="http://www.w3.org/2000/svg" viewBox="0 0 16.759 19.83">
  <defs>
    <style>
      .cls-1 {
        fill: #7d87a3;
      }
    </style>
  </defs>
  <g id="icons8-trash" transform="translate(-2 0.031)">
    <path id="Path_34" data-name="Path 34" class="cls-1" d="M8.856-.031A2.348,2.348,0,0,0,7.142.54a2.358,2.358,0,0,0-.6,1.738H3.524a.763.763,0,0,0-.762.762H2V4.563H18.759V3.04H18a.763.763,0,0,0-.762-.762H14.212a2.358,2.358,0,0,0-.6-1.738A2.348,2.348,0,0,0,11.9-.031Zm0,1.571H11.9c.417,0,.548.1.6.143s.143.17.143.6H8.118c0-.426.1-.55.143-.6S8.439,1.54,8.856,1.54ZM3.524,5.325V17.513A2.29,2.29,0,0,0,5.809,19.8H14.95a2.29,2.29,0,0,0,2.285-2.285V5.325ZM6.571,7.61H8.094v9.141H6.571Zm3.047,0h1.524v9.141H9.618Zm3.047,0h1.524v9.141H12.665Z" transform="translate(0 0)"/>
  </g>
</svg>
